<svg version="1.0" xmlns="http://www.w3.org/2000/svg"
 width="1280.000000pt" height="864.000000pt" viewBox="0 0 1280.000000 864.000000"
 preserveAspectRatio="xMidYMid meet">
<g transform="translate(0.000000,864.000000) scale(0.100000,-0.100000)"
fill="#000000" stroke="none">
<path d="M10497 8528 c-47 -51 -125 -141 -173 -199 -49 -58 -131 -146 -183
-195 -224 -212 -382 -445 -514 -759 -73 -172 -120 -316 -228 -695 -100 -348
-147 -498 -190 -608 -16 -40 -29 -77 -29 -82 0 -21 59 -9 104 21 92 62 236
249 470 610 69 108 133 203 142 210 26 21 47 -15 41 -70 -8 -71 -79 -199 -274
-490 -204 -304 -299 -458 -289 -468 3 -3 57 28 118 69 682 454 1152 1168 1239
1881 17 138 6 415 -20 532 -30 134 -103 335 -121 335 -5 0 -46 -42 -93 -92z"/>
<path d="M12495 8206 c-260 -125 -534 -312 -812 -553 -223 -194 -781 -775
-874 -909 -89 -129 -40 -165 141 -104 222 74 421 200 600 380 116 116 204 190
229 190 18 0 22 -19 10 -42 -47 -93 -273 -341 -407 -449 -88 -71 -151 -105
-245 -131 -87 -24 -122 -42 -143 -73 -21 -32 -6 -58 49 -87 33 -18 59 -22 127
-23 99 0 151 19 215 80 24 23 81 56 145 85 518 230 916 725 1041 1292 22 99
39 388 23 388 -5 0 -49 -20 -99 -44z"/>
<path d="M9104 7850 c-245 -52 -515 -300 -578 -530 -27 -97 -431 -1279 -496
-1450 -144 -379 -268 -640 -478 -1005 -17 -28 89 69 210 194 477 489 841 1044
1079 1644 34 86 66 157 71 157 24 0 -9 -241 -57 -411 -79 -281 -198 -540 -485
-1058 -77 -139 -139 -256 -137 -258 3 -2 56 51 120 119 587 626 931 1234 1038
1838 26 146 38 522 20 597 -27 107 -95 163 -206 169 -33 2 -78 -1 -101 -6z"/>
<path d="M7799 7688 c-148 -205 -424 -627 -490 -751 -17 -32 -80 -201 -140
-375 -397 -1145 -593 -1586 -935 -2105 -58 -88 -101 -157 -95 -155 19 7 259
226 388 356 367 367 631 691 851 1044 43 69 88 145 102 171 42 79 62 52 36
-50 -43 -175 -200 -439 -600 -1012 -86 -123 -154 -226 -151 -229 6 -6 112 70
225 163 136 111 370 351 474 485 237 306 383 571 493 895 152 450 166 915 37
1294 -29 84 -142 311 -155 311 -5 0 -23 -19 -40 -42z"/>
<path d="M6449 7313 c-280 -288 -523 -603 -749 -972 -91 -149 -141 -250 -332
-676 -392 -876 -608 -1226 -986 -1601 -124 -123 -126 -125 -75 -100 131 65
340 204 503 335 441 354 854 862 1259 1549 62 106 117 192 122 192 15 0 10
-36 -16 -140 -53 -208 -159 -464 -280 -677 -184 -324 -496 -739 -644 -857
-109 -87 -149 -147 -121 -181 18 -22 94 -29 172 -16 162 27 334 123 401 224
20 30 55 68 76 84 22 16 86 71 144 121 405 360 705 869 821 1393 89 401 71
830 -50 1195 -40 120 -99 254 -112 254 -5 0 -65 -57 -133 -127z"/>
<path d="M3799 6742 c-52 -26 -144 -69 -202 -96 -298 -136 -597 -364 -883
-673 -70 -76 -260 -297 -422 -491 -482 -579 -686 -785 -977 -987 -125 -87
-116 -85 130 20 668 287 1157 594 1547 973 75 74 142 132 148 130 6 -2 -6 -29
-28 -63 -123 -192 -477 -539 -787 -772 -209 -158 -440 -293 -611 -357 -211
-79 -261 -164 -127 -217 50 -20 77 -23 193 -23 83 -1 156 4 190 13 76 19 188
71 230 108 19 16 79 53 133 82 118 63 281 170 397 259 128 99 391 368 500 512
314 414 544 928 654 1460 14 69 28 135 31 148 7 31 -5 28 -116 -26z"/>
<path d="M5112 6570 c-498 -286 -850 -598 -1607 -1425 -580 -633 -932 -965
-1220 -1149 -193 -124 -183 -141 47 -82 481 124 987 407 1463 819 44 38 151
137 237 218 l156 149 21 -26 c29 -37 36 -104 18 -158 -35 -102 -130 -205 -357
-385 -265 -210 -284 -225 -374 -311 -49 -47 -108 -111 -132 -143 -40 -54 -91
-164 -80 -174 17 -17 361 164 536 282 306 206 610 506 836 825 299 421 510
955 564 1425 12 106 13 195 3 194 -5 0 -54 -27 -111 -59z"/>
<path d="M11385 6190 c-479 -60 -933 -219 -885 -310 16 -30 69 -43 205 -47
148 -6 243 6 353 43 79 26 104 22 81 -13 -49 -80 -274 -145 -878 -257 -98 -18
-170 -51 -191 -89 -13 -24 -13 -28 6 -54 55 -74 230 -96 372 -47 76 27 77 27
192 14 142 -16 429 -17 570 -1 353 41 714 139 1080 295 164 70 472 226 477
242 6 20 -245 114 -423 158 -230 58 -319 68 -619 71 -148 2 -301 0 -340 -5z"/>
<path d="M9570 5707 c-197 -145 -425 -299 -675 -455 -403 -251 -964 -534
-1530 -774 -1737 -736 -3556 -1039 -4985 -832 -282 41 -523 87 -879 170 -268
62 -263 60 -545 247 -200 132 -296 184 -406 219 -64 19 -96 23 -210 23 -124
-1 -142 -3 -218 -30 -46 -17 -84 -34 -84 -40 -1 -13 291 -163 527 -271 740
-337 1468 -541 2205 -619 371 -39 602 -41 950 -9 1927 177 3918 932 5495 2082
221 161 462 352 444 352 -2 0 -42 -28 -89 -63z"/>
<path d="M9923 5224 c-276 -33 -584 -117 -828 -224 l-50 -22 50 -25 c150 -77
302 -107 725 -143 364 -31 515 -58 667 -121 71 -30 102 -52 86 -62 -5 -3 -157
4 -338 15 -400 25 -1000 30 -1175 10 -239 -27 -505 -76 -495 -91 13 -22 164
-51 500 -96 457 -61 567 -89 760 -190 328 -173 690 -255 1120 -255 369 0 663
53 1000 178 130 49 205 84 205 96 0 20 -65 122 -133 209 -304 388 -818 650
-1417 723 -146 17 -527 16 -677 -2z"/>
<path d="M8574 4330 c-116 -12 -169 -21 -183 -29 -19 -12 -30 -77 -20 -116 26
-92 142 -138 526 -210 371 -69 498 -112 589 -199 38 -37 58 -76 38 -76 -4 0
-111 29 -238 64 -529 148 -829 212 -1156 247 -132 14 -573 16 -609 2 -22 -9
-20 -11 30 -30 30 -12 191 -75 359 -141 942 -370 1485 -523 2115 -596 148 -18
514 -40 521 -33 8 7 -30 78 -93 176 -172 267 -408 500 -673 663 -104 65 -287
151 -399 188 -243 81 -556 116 -807 90z"/>
<path d="M7050 3719 c32 -28 203 -143 610 -411 203 -133 440 -316 440 -339 0
-5 -9 -13 -21 -19 -50 -27 -170 21 -528 210 -280 147 -417 210 -534 245 -45
13 -113 36 -152 51 -89 33 -170 37 -191 9 -32 -42 8 -143 93 -235 62 -67 126
-111 199 -134 42 -14 64 -30 115 -88 225 -254 623 -507 1149 -731 352 -151
971 -394 977 -384 13 21 5 304 -11 397 -70 398 -312 742 -706 1005 -371 247
-866 405 -1405 449 l-70 6 35 -31z"/>
<path d="M1210 3436 c0 -3 24 -45 53 -93 215 -356 351 -712 402 -1051 23 -155
29 -349 16 -497 -11 -116 -18 -161 -37 -244 -11 -51 -24 0 -34 139 -39 534
-162 978 -373 1343 -65 112 -71 127 -73 186 -2 35 -8 78 -14 97 -15 43 -70 91
-116 100 -163 30 -398 -126 -435 -290 -16 -73 0 -124 60 -190 l47 -52 -7 -70
c-5 -38 -8 -149 -8 -246 -1 -312 47 -587 165 -930 83 -242 145 -382 416 -948
102 -212 198 -414 213 -450 16 -36 32 -69 36 -74 8 -9 44 45 234 349 147 234
230 400 289 573 114 333 143 669 86 996 -73 426 -266 786 -587 1097 -114 111
-333 278 -333 255z"/>
<path d="M5655 3352 c17 -10 80 -49 140 -87 224 -138 424 -295 619 -484 168
-165 372 -407 364 -433 -2 -6 -33 13 -69 43 -339 286 -628 483 -938 638 -141
71 -380 164 -405 157 -34 -9 -66 -66 -66 -117 0 -79 43 -131 260 -309 85 -70
180 -154 210 -187 53 -57 100 -135 100 -165 0 -28 99 -168 168 -236 124 -125
324 -238 557 -317 141 -47 359 -100 705 -170 151 -30 342 -71 423 -91 82 -20
151 -34 154 -31 15 16 -108 318 -188 460 -375 665 -1028 1130 -1839 1311 -63
14 -140 28 -170 31 l-55 7 30 -20z"/>
<path d="M4420 3053 c0 -27 132 -171 327 -360 244 -235 325 -328 377 -432 62
-122 95 -261 62 -261 -25 0 -159 112 -507 422 -304 271 -494 410 -703 513
-143 70 -168 76 -184 41 -24 -53 -25 -102 -4 -173 28 -89 82 -175 240 -380
190 -247 232 -317 267 -438 83 -285 270 -502 579 -674 141 -78 240 -119 456
-191 207 -69 901 -242 915 -229 7 8 -50 276 -80 377 -87 291 -205 547 -371
798 -261 396 -705 773 -1083 919 -141 55 -291 89 -291 68z"/>
<path d="M2864 3004 c9 -66 70 -183 226 -434 74 -118 164 -274 201 -345 140
-273 150 -424 17 -247 -44 58 -75 104 -234 357 -148 237 -222 335 -333 445
-129 128 -199 172 -282 178 -55 4 -60 3 -88 -27 -37 -40 -51 -98 -51 -213 0
-151 44 -317 107 -411 32 -47 37 -63 49 -167 48 -413 242 -774 628 -1169 156
-159 311 -299 621 -561 127 -107 279 -239 339 -292 61 -54 111 -96 113 -94 8
7 45 147 67 256 74 348 78 748 11 1073 -61 292 -190 600 -353 841 -237 352
-585 647 -966 821 l-79 36 7 -47z"/>
</g>
</svg>